<?xml version="1.0" encoding="UTF-8" standalone="no"?>
<svg
   xmlns:dc="http://purl.org/dc/elements/1.1/"
   xmlns:cc="http://creativecommons.org/ns#"
   xmlns:rdf="http://www.w3.org/1999/02/22-rdf-syntax-ns#"
   xmlns:svg="http://www.w3.org/2000/svg"
   xmlns="http://www.w3.org/2000/svg"
   xmlns:sodipodi="http://sodipodi.sourceforge.net/DTD/sodipodi-0.dtd"
   xmlns:inkscape="http://www.inkscape.org/namespaces/inkscape"
   width="600pt"
   height="573pt"
   viewBox="0 0 600 573"
   version="1.1"
   id="svg2"
   inkscape:version="0.91 r13725"
   sodipodi:docname="Olive 2.svg"
   inkscape:export-filename="D:\OneDrive\Ω\E-Democracy\Blueprint\Wreath\Olive 2.png"
   inkscape:export-xdpi="90"
   inkscape:export-ydpi="90">
  <metadata
     id="metadata93">
    <rdf:RDF>
      <cc:Work
         rdf:about="">
        <dc:format>image/svg+xml</dc:format>
        <dc:type
           rdf:resource="http://purl.org/dc/dcmitype/StillImage" />
        <dc:title />
      </cc:Work>
    </rdf:RDF>
  </metadata>
  <defs
     id="defs91" />
  <sodipodi:namedview
     pagecolor="#ffffff"
     bordercolor="#666666"
     borderopacity="1"
     objecttolerance="10"
     gridtolerance="10"
     guidetolerance="10"
     inkscape:pageopacity="0"
     inkscape:pageshadow="2"
     inkscape:window-width="1366"
     inkscape:window-height="715"
     id="namedview89"
     showgrid="false"
     inkscape:zoom="0.65898778"
     inkscape:cx="222.59243"
     inkscape:cy="379.87387"
     inkscape:window-x="-8"
     inkscape:window-y="-8"
     inkscape:window-maximized="1"
     inkscape:current-layer="svg2" />
  <g
     id="#000000ff">
    <path
       fill="#000000"
       opacity="1.00"
       d=" M 232.97 4.86 C 238.45 3.34 243.83 1.46 249.36 0.11 C 251.31 1.40 249.06 3.84 248.46 5.38 C 242.52 14.52 234.88 22.46 226.81 29.73 C 218.02 37.57 206.10 43.46 194.08 40.99 C 193.82 31.01 198.62 20.68 207.08 15.13 C 214.91 9.97 224.03 7.37 232.97 4.86 Z"
       id="path5" />
    <path
       fill="#000000"
       opacity="1.00"
       d=" M 350.74 0.01 C 355.70 0.32 360.34 2.22 365.09 3.53 C 374.74 6.64 385.05 8.62 393.42 14.68 C 401.03 20.06 407.76 28.26 407.90 37.99 C 408.18 40.33 405.85 41.52 403.83 41.45 C 393.16 41.44 382.90 36.88 374.69 30.26 C 368.99 24.98 364.08 18.94 359.23 12.90 C 356.26 8.70 352.52 4.93 350.74 0.01 Z"
       id="path7" />
    <path
       fill="#000000"
       opacity="1.00"
       d=" M 174.27 14.29 C 178.61 11.51 182.81 8.46 187.47 6.20 C 184.72 17.36 182.25 28.74 177.13 39.11 C 172.59 47.77 166.05 55.30 158.46 61.45 C 153.71 65.17 148.82 68.96 143.00 70.83 C 138.57 62.85 140.24 52.93 144.07 45.04 C 150.59 31.91 162.10 22.06 174.27 14.29 Z"
       id="path9" />
    <path
       fill="#000000"
       opacity="1.00"
       d=" M 415.56 7.12 C 428.13 13.21 439.24 22.11 448.62 32.41 C 453.66 38.81 459.78 45.25 460.59 53.78 C 461.04 59.20 461.71 65.27 458.84 70.17 C 449.32 68.68 442.59 61.22 436.27 54.63 C 430.06 47.49 423.89 39.86 421.23 30.60 C 418.83 22.92 416.25 15.18 415.56 7.12 Z"
       id="path11" />
    <path
       fill="#000000"
       opacity="1.00"
       d=" M 476.79 34.05 C 483.28 41.30 489.30 48.96 495.35 56.58 C 499.23 62.50 503.62 68.23 506.00 74.97 C 509.63 84.77 509.86 95.53 508.35 105.77 C 507.69 109.10 507.21 112.64 505.02 115.37 C 493.86 108.09 484.97 97.17 480.49 84.59 C 477.74 77.05 477.94 68.93 477.52 61.03 C 477.00 52.05 477.16 43.04 476.79 34.05 Z"
       id="path13" />
    <path
       fill="#000000"
       opacity="1.00"
       d=" M 98.07 70.03 C 105.25 57.36 114.65 46.16 123.81 34.89 C 125.43 48.52 126.95 62.49 123.76 76.02 C 120.59 92.06 110.56 106.39 96.97 115.37 C 93.33 110.42 93.13 103.99 92.58 98.10 C 92.27 88.51 93.68 78.66 98.07 70.03 Z"
       id="path15" />
    <path
       fill="#000000"
       opacity="1.00"
       d=" M 159.28 65.23 C 168.75 57.75 181.12 55.01 193.00 55.11 C 204.85 55.35 216.64 57.80 227.65 62.20 C 231.33 63.48 234.93 65.03 238.17 67.23 C 235.17 69.19 231.53 68.85 228.13 69.15 C 211.70 70.32 195.46 73.64 178.96 73.73 C 171.51 73.47 163.82 72.98 156.95 69.87 C 156.84 67.96 157.71 66.30 159.28 65.23 Z"
       id="path17" />
    <path
       fill="#000000"
       opacity="1.00"
       d=" M 364.66 66.38 C 375.74 60.78 387.96 57.83 400.09 55.54 C 411.49 54.05 423.24 55.74 433.91 59.98 C 438.01 61.79 441.90 64.34 444.57 68.02 C 444.04 69.33 443.40 70.78 441.89 71.16 C 435.45 73.04 428.67 72.91 422.04 73.14 C 405.27 73.60 388.66 70.85 372.05 68.96 C 369.61 68.34 366.10 68.87 364.66 66.38 Z"
       id="path19" />
    <path
       fill="#000000"
       opacity="1.00"
       d=" M 134.85 88.86 C 149.73 81.47 166.85 81.48 183.07 82.09 C 185.88 82.48 189.51 82.15 191.30 84.80 C 186.59 87.99 181.22 89.95 176.13 92.42 C 163.01 98.24 150.21 105.30 135.95 107.92 C 127.13 109.98 118.03 110.05 109.03 109.94 C 117.06 102.27 124.69 93.77 134.85 88.86 Z"
       id="path21" />
    <path
       fill="#000000"
       opacity="1.00"
       d=" M 415.58 82.35 C 433.78 81.11 453.15 81.56 469.62 90.35 C 478.69 95.02 485.74 102.57 492.56 109.99 C 479.68 109.97 466.49 109.30 454.32 104.69 C 442.66 100.40 431.47 94.93 420.13 89.86 C 416.87 88.32 413.46 87.02 410.44 85.02 C 410.31 82.37 413.83 82.92 415.58 82.35 Z"
       id="path23" />
    <path
       fill="#000000"
       opacity="1.00"
       d=" M 69.60 82.11 C 71.28 86.05 72.34 90.21 73.71 94.27 C 77.15 105.24 81.16 116.30 81.32 127.94 C 81.65 144.35 77.79 161.97 65.91 173.99 C 62.01 167.29 57.90 160.53 55.94 152.95 C 53.91 145.53 54.40 137.70 55.58 130.19 C 58.63 113.73 64.56 98.02 69.60 82.11 Z"
       id="path25" />
    <path
       fill="#000000"
       opacity="1.00"
       d=" M 525.26 102.36 C 527.55 96.85 529.05 90.72 533.04 86.14 C 538.85 100.23 542.96 115.01 546.42 129.84 C 547.38 135.09 548.57 140.49 547.40 145.81 C 545.86 153.39 543.43 160.88 539.53 167.59 C 538.44 169.64 536.71 171.21 535.00 172.72 C 532.55 171.54 531.59 168.91 530.32 166.71 C 527.28 161.16 523.69 155.73 522.36 149.45 C 521.46 144.36 521.41 139.17 521.40 134.02 C 521.50 123.38 521.29 112.42 525.26 102.36 Z"
       id="path27" />
    <path
       fill="#000000"
       opacity="1.00"
       d=" M 105.99 129.97 C 118.11 122.29 131.92 117.61 145.97 114.96 C 148.06 114.53 150.19 114.65 152.31 114.76 C 151.74 115.97 151.21 117.27 150.06 118.06 C 142.85 124.15 135.60 130.21 128.45 136.39 C 120.69 143.52 111.80 149.26 103.00 155.00 C 96.44 158.37 90.27 162.87 82.94 164.43 C 81.56 164.79 79.10 164.94 78.83 163.04 C 78.99 159.85 80.68 156.99 81.94 154.12 C 87.40 143.94 96.32 136.05 105.99 129.97 Z"
       id="path29" />
    <path
       fill="#000000"
       opacity="1.00"
       d=" M 449.12 114.55 C 453.13 113.87 457.03 115.27 460.92 116.02 C 479.07 120.50 497.59 127.47 510.63 141.43 C 516.16 146.57 519.86 153.34 522.51 160.34 C 523.20 161.78 523.18 164.15 521.16 164.35 C 517.71 164.31 514.37 163.27 511.28 161.83 C 492.27 152.89 476.69 138.55 460.62 125.33 C 456.66 121.88 452.35 118.75 449.12 114.55 Z"
       id="path31" />
    <path
       fill="#000000"
       opacity="1.00"
       d=" M 28.40 159.92 C 28.87 156.69 28.16 153.18 29.70 150.18 C 34.03 156.31 37.87 162.77 42.05 169.01 C 48.34 178.04 52.05 188.55 55.10 199.03 C 58.60 211.19 56.65 224.09 53.17 236.01 C 52.78 237.37 51.86 238.47 51.10 239.62 C 44.94 238.22 39.79 233.82 36.05 228.88 C 30.00 220.56 28.15 210.10 27.25 200.07 C 26.48 186.68 27.85 173.30 28.40 159.92 Z"
       id="path33" />
    <path
       fill="#000000"
       opacity="1.00"
       d=" M 557.97 172.98 C 562.66 165.10 567.12 157.02 572.56 149.63 C 573.83 165.41 575.51 181.22 574.76 197.08 C 574.41 207.19 572.37 217.46 567.46 226.39 C 563.82 232.31 558.59 237.65 551.96 240.07 C 548.08 236.95 547.08 231.82 546.91 227.11 C 546.50 216.55 545.57 205.85 547.54 195.39 C 549.70 187.38 554.14 180.27 557.97 172.98 Z"
       id="path35" />
    <path
       fill="#000000"
       opacity="1.00"
       d=" M 102.39 168.35 C 108.91 164.72 115.29 160.68 122.45 158.40 C 121.04 161.52 118.77 164.10 116.76 166.84 C 103.29 184.60 92.67 204.85 75.59 219.60 C 71.48 222.86 67.59 226.57 62.78 228.80 C 62.13 228.84 60.83 228.91 60.18 228.94 C 58.68 213.69 66.15 199.13 76.05 188.02 C 83.17 179.48 93.07 174.10 102.39 168.35 Z"
       id="path37" />
    <path
       fill="#000000"
       opacity="1.00"
       d=" M 480.18 159.70 C 482.03 160.08 483.92 160.50 485.62 161.37 C 494.45 165.67 503.32 170.02 511.42 175.63 C 519.58 181.34 526.43 188.72 532.46 196.60 C 538.55 204.89 540.61 215.17 542.45 225.07 C 542.67 226.42 542.64 227.77 542.37 229.12 C 538.24 229.16 535.07 226.23 531.87 224.05 C 521.42 215.97 511.46 206.74 504.67 195.29 C 499.55 185.76 493.57 176.65 486.47 168.47 C 484.18 165.69 481.52 163.12 480.18 159.70 Z"
       id="path39" />
    <path
       fill="#000000"
       opacity="1.00"
       d=" M 501.86 212.40 C 504.87 214.60 507.18 217.56 509.87 220.11 C 516.66 227.02 523.63 233.75 530.22 240.85 C 540.21 251.70 543.55 266.73 545.66 280.88 C 545.79 287.18 547.47 294.32 543.83 299.97 C 542.17 300.34 541.21 298.79 540.17 297.83 C 533.74 290.72 528.07 282.90 523.58 274.43 C 518.33 264.77 515.05 254.23 511.16 243.98 C 508.08 233.45 504.39 223.07 501.86 212.40 Z"
       id="path41" />
    <path
       fill="#000000"
       opacity="1.00"
       d=" M 72.31 240.27 C 80.82 230.96 89.52 221.69 99.44 213.87 C 96.69 225.12 92.86 236.06 89.44 247.12 C 85.91 258.11 82.73 269.51 75.89 279.00 C 70.40 286.86 65.24 295.12 58.27 301.77 C 54.59 293.04 55.12 283.11 56.91 274.00 C 59.49 261.82 63.94 249.71 72.31 240.27 Z"
       id="path43" />
    <path
       fill="#000000"
       opacity="1.00"
       d=" M 588.43 233.46 C 591.03 230.96 593.55 228.20 596.93 226.75 C 596.89 228.45 596.90 230.18 596.48 231.85 C 592.90 244.71 591.96 258.16 587.98 270.93 C 583.65 285.33 576.07 299.80 562.82 307.79 C 558.79 309.92 555.01 313.43 550.15 313.01 C 549.63 311.75 548.99 310.48 549.08 309.08 C 549.00 292.91 552.76 276.41 562.00 262.94 C 569.80 252.26 579.08 242.77 588.43 233.46 Z"
       id="path45" />
    <path
       fill="#000000"
       opacity="1.00"
       d=" M 5.11 227.76 C 7.55 228.41 9.36 230.24 11.32 231.71 C 17.21 236.45 23.61 240.78 28.11 246.96 C 35.69 257.27 43.02 267.92 48.25 279.64 C 51.70 289.32 53.07 299.85 51.90 310.07 C 51.93 311.52 50.89 312.54 50.02 313.57 C 40.80 309.78 32.29 303.84 26.19 295.89 C 17.39 284.35 13.28 270.08 10.47 256.05 C 8.86 246.59 6.65 237.23 5.11 227.76 Z"
       id="path47" />
    <path
       fill="#000000"
       opacity="1.00"
       d=" M 507.92 275.45 C 508.06 275.37 508.34 275.21 508.48 275.13 C 512.74 279.20 515.20 284.71 518.47 289.54 C 523.06 297.35 527.70 305.17 531.49 313.41 C 534.71 319.74 536.07 326.85 536.56 333.88 C 537.11 340.55 537.29 347.34 535.89 353.93 C 534.83 360.37 531.76 366.23 528.50 371.81 C 520.30 363.86 516.44 352.65 512.95 342.05 C 510.67 331.54 510.39 320.72 509.37 310.04 C 508.65 298.52 507.70 287.00 507.92 275.45 Z"
       id="path49" />
    <path
       fill="#000000"
       opacity="1.00"
       d=" M 88.72 281.71 C 90.11 279.71 91.47 277.44 93.88 276.57 C 94.14 286.77 93.23 296.95 92.62 307.12 C 91.57 319.39 90.90 331.74 88.53 343.85 C 86.72 349.88 84.34 355.77 81.25 361.26 C 79.13 364.91 76.71 368.65 72.92 370.77 C 69.85 367.41 68.81 362.84 67.58 358.59 C 63.51 344.85 64.78 329.96 69.29 316.51 C 74.50 304.27 81.31 292.74 88.72 281.71 Z"
       id="path51" />
    <path
       fill="#000000"
       opacity="1.00"
       d=" M 0.00 306.95 C 13.91 315.11 27.17 324.33 40.53 333.35 C 50.65 339.95 57.90 350.06 63.45 360.61 C 67.25 368.24 70.58 376.49 70.52 385.14 C 69.37 387.28 66.94 386.30 65.08 385.97 C 48.75 381.71 34.09 371.21 25.09 356.89 C 15.75 341.12 8.11 324.44 0.00 308.03 L 0.00 306.95 Z"
       id="path53" />
    <path
       fill="#000000"
       opacity="1.00"
       d=" M 576.40 323.36 C 584.05 318.15 591.99 313.39 599.99 308.74 C 599.63 312.26 597.91 315.39 596.48 318.55 C 589.69 332.78 582.70 346.95 574.48 360.42 C 565.72 372.85 552.20 381.33 537.79 385.75 C 535.64 386.29 533.13 387.42 531.11 385.91 C 530.00 383.81 531.12 381.54 531.60 379.43 C 534.90 368.88 538.74 358.28 545.27 349.25 C 553.24 338.09 565.10 330.73 576.40 323.36 Z"
       id="path55" />
    <path
       fill="#000000"
       opacity="1.00"
       d=" M 96.47 353.57 C 98.14 347.84 99.90 342.06 102.98 336.90 C 104.41 338.59 103.90 341.03 104.39 343.07 C 107.58 363.12 114.01 382.62 115.78 402.91 C 115.96 412.31 114.51 421.77 111.70 430.74 C 111.22 432.63 110.11 434.25 109.02 435.84 C 105.60 434.61 103.32 431.65 100.99 429.04 C 95.68 422.81 93.68 414.62 92.22 406.77 C 91.20 400.57 89.79 394.33 90.13 388.01 C 91.11 376.35 93.65 364.90 96.47 353.57 Z"
       id="path57" />
    <path
       fill="#000000"
       opacity="1.00"
       d=" M 498.25 338.88 C 499.56 339.41 500.80 340.22 501.33 341.61 C 505.61 351.33 507.59 361.84 509.69 372.19 C 512.22 389.07 511.65 406.99 504.89 422.88 C 502.61 428.75 497.87 433.09 492.77 436.55 C 489.59 429.06 486.85 421.24 486.15 413.08 C 485.84 406.35 486.03 399.59 487.24 392.96 C 489.79 378.89 493.55 365.06 496.15 351.01 C 497.05 347.00 496.78 342.75 498.25 338.88 Z"
       id="path59" />
    <path
       fill="#000000"
       opacity="1.00"
       d=" M 20.30 393.06 C 26.43 393.93 31.97 397.04 38.04 398.24 C 53.96 401.61 69.08 408.34 82.53 417.45 C 88.49 421.68 93.61 426.96 98.38 432.46 C 103.06 438.13 107.93 443.94 110.32 451.01 C 100.18 454.47 89.19 451.73 79.26 448.68 C 69.80 445.90 62.10 439.47 54.66 433.28 C 43.50 424.02 34.79 412.37 25.87 401.06 C 23.94 398.45 21.23 396.30 20.30 393.06 Z"
       id="path61" />
    <path
       fill="#000000"
       opacity="1.00"
       d=" M 570.26 396.23 C 574.46 395.34 578.55 393.15 582.95 393.87 C 581.23 396.79 578.12 398.41 575.87 400.85 C 569.25 407.74 564.93 416.49 558.29 423.35 C 552.28 430.12 544.84 435.39 537.49 440.59 C 528.73 447.37 517.76 450.50 506.94 452.05 C 501.97 452.90 496.67 452.92 491.99 450.82 C 494.03 444.02 498.85 438.57 503.12 433.07 C 513.38 420.08 528.14 411.72 542.90 404.84 C 551.51 400.54 561.08 398.87 570.26 396.23 Z"
       id="path63" />
    <path
       fill="#000000"
       opacity="1.00"
       d=" M 127.07 433.04 C 127.26 420.97 126.58 408.82 127.88 396.81 C 134.47 409.23 141.10 421.66 148.43 433.68 C 155.14 445.74 159.87 459.16 160.70 473.02 C 161.03 478.65 159.63 484.18 158.26 489.60 C 148.67 482.68 139.67 474.49 133.87 464.04 C 131.13 459.43 128.62 454.44 128.14 449.01 C 127.79 443.68 126.88 438.39 127.07 433.04 Z"
       id="path65" />
    <path
       fill="#000000"
       opacity="1.00"
       d=" M 449.87 439.80 C 458.51 425.75 466.52 411.31 474.13 396.68 C 476.21 415.55 476.93 434.86 472.64 453.48 C 471.42 458.95 469.05 464.07 465.53 468.44 C 458.75 476.76 451.53 485.44 441.57 490.03 C 442.72 473.15 441.57 455.18 449.87 439.80 Z"
       id="path67" />
    <path
       fill="#000000"
       opacity="1.00"
       d=" M 167.86 446.79 C 175.70 454.38 183.22 462.29 190.91 470.03 C 197.48 477.13 204.67 483.70 210.44 491.51 C 216.01 497.72 219.87 505.54 220.59 513.91 C 220.77 516.55 221.60 520.17 218.92 521.87 C 214.80 522.33 211.00 520.24 207.32 518.69 C 192.20 511.70 181.61 497.46 176.12 482.05 C 172.18 470.63 169.06 458.83 167.86 446.79 Z"
       id="path69" />
    <path
       fill="#000000"
       opacity="1.00"
       d=" M 418.76 461.77 C 423.82 456.72 428.93 451.71 434.24 446.92 C 431.99 465.38 427.20 484.03 416.55 499.54 C 409.38 510.57 398.26 519.51 385.06 521.78 C 383.52 522.21 382.03 521.70 380.64 521.09 C 379.77 509.93 384.95 499.28 391.65 490.68 C 399.66 480.12 409.46 471.15 418.76 461.77 Z"
       id="path71" />
    <path
       fill="#000000"
       opacity="1.00"
       d=" M 57.92 469.16 C 61.93 468.55 65.99 468.86 70.02 469.08 C 86.38 470.41 102.70 472.17 118.91 474.76 C 123.77 475.36 128.45 476.93 132.68 479.41 C 144.48 485.01 155.83 491.82 165.13 501.09 C 148.83 509.49 129.05 509.06 112.17 502.59 C 91.58 496.12 74.99 481.75 57.92 469.16 Z"
       id="path73" />
    <path
       fill="#000000"
       opacity="1.00"
       d=" M 474.35 477.50 C 493.92 471.18 514.68 471.06 534.99 469.43 C 537.38 469.60 540.44 468.66 542.28 470.66 C 535.87 476.29 528.67 480.87 521.59 485.60 C 513.75 490.52 505.99 495.62 497.67 499.70 C 485.80 504.57 473.12 508.39 460.16 507.58 C 453.23 506.76 445.69 506.27 439.95 501.84 C 439.47 498.25 442.55 495.99 444.95 493.92 C 453.74 486.85 463.63 481.08 474.35 477.50 Z"
       id="path75" />
    <path
       fill="#000000"
       opacity="1.00"
       d=" M 219.61 482.89 C 223.74 484.95 227.78 487.18 232.02 489.02 C 242.79 494.10 254.60 496.87 264.80 503.15 C 270.53 506.58 275.58 511.23 279.18 516.88 C 282.23 521.64 284.21 526.97 286.34 532.18 C 277.24 531.92 268.03 532.35 259.05 530.57 C 254.30 529.48 250.45 526.24 246.81 523.17 C 238.70 515.83 231.59 507.35 225.89 498.01 C 222.99 493.35 220.93 488.21 219.61 482.89 Z"
       id="path77" />
    <path
       fill="#000000"
       opacity="1.00"
       d=" M 360.01 493.04 C 367.46 490.29 374.60 486.80 381.72 483.28 C 380.17 493.45 373.92 501.84 368.08 509.95 C 362.51 516.34 357.27 523.39 349.63 527.47 C 342.46 531.44 334.06 531.71 326.08 532.10 C 323.02 532.16 319.72 532.57 316.99 530.87 C 317.08 528.88 317.00 526.78 318.08 525.02 C 321.67 518.60 326.32 512.79 331.64 507.70 C 339.30 499.94 350.14 496.94 360.01 493.04 Z"
       id="path79" />
    <path
       fill="#000000"
       opacity="1.00"
       d=" M 383.64 526.54 C 394.47 523.49 405.65 521.27 416.93 521.13 C 436.86 522.46 456.49 526.41 476.03 530.36 C 478.02 530.71 479.93 531.37 481.81 532.12 C 480.21 534.40 477.26 534.68 474.85 535.62 C 457.33 541.15 439.67 548.13 420.99 547.50 C 413.12 546.99 405.04 547.31 397.49 544.67 C 390.72 542.21 384.05 539.17 378.36 534.71 C 377.10 533.47 375.20 532.29 375.21 530.34 C 377.50 528.23 380.83 527.73 383.64 526.54 Z"
       id="path81" />
    <path
       fill="#000000"
       opacity="1.00"
       d=" M 159.07 524.09 C 182.02 519.89 206.97 519.69 228.21 530.53 C 223.18 535.63 217.39 540.17 210.63 542.72 C 197.70 547.68 183.54 548.01 169.91 546.73 C 153.38 544.86 137.78 538.78 121.85 534.32 C 119.95 533.75 117.89 533.40 116.31 532.11 C 130.58 529.52 144.82 526.77 159.07 524.09 Z"
       id="path83" />
    <path
       fill="#000000"
       opacity="1.00"
       d=" M 306.16 537.67 C 317.42 533.53 329.55 536.56 340.76 539.30 C 351.53 542.13 362.07 545.95 372.05 550.90 C 377.77 553.72 382.87 557.65 388.66 560.33 C 396.24 563.52 404.14 566.45 410.77 571.41 L 411.03 572.93 C 399.98 572.72 388.98 571.48 377.95 570.93 C 368.30 570.40 358.74 568.59 349.56 565.60 C 340.87 562.80 331.56 560.67 324.39 554.69 C 318.05 549.31 312.12 543.46 306.16 537.67 Z"
       id="path85" />
    <path
       fill="#000000"
       opacity="1.00"
       d=" M 270.02 537.07 C 278.13 535.65 286.62 534.76 294.66 537.06 C 289.22 543.74 283.65 550.50 276.57 555.54 C 268.04 560.86 258.38 564.01 248.75 566.72 C 232.90 571.09 216.34 571.49 200.01 572.18 C 196.95 572.38 193.88 572.12 190.84 571.76 C 208.80 561.70 227.36 552.74 246.03 544.08 C 253.64 540.62 261.83 538.64 270.02 537.07 Z"
       id="path87" />
  </g>
  <g
     id="g3554"
     transform="matrix(0.475,0,0,0.475,189.28474,165.40519)">
    <g
       id="#ffffffff"
       transform="translate(-204.46525,-43.289115)" />
    <g
       id="#898989ff"
       transform="translate(-204.46525,-43.289115)">
      <path
         id="path6"
         d="m 65.21,0 8.21,0 c 22.75,18.54 52.02,26.54 76.52,42.71 -0.77,1 -1.54,1.99 -2.31,2.98 -0.71,-0.97 -1.42,-1.95 -2.12,-2.92 -0.27,1.37 -0.53,2.74 -0.79,4.12 -9.65,-6.96 -20.43,-12.64 -32.02,-15.57 -0.31,-1.3 -0.61,-2.6 -0.91,-3.9 -0.44,0.62 -0.88,1.24 -1.32,1.86 C 97.19,21.94 85.25,11.91 73.57,2.72 70.78,1.82 68.01,0.88 65.21,0 Z"
         inkscape:connector-curvature="0"
         style="opacity:1;fill:#898989" />
      <path
         id="path8"
         d="m 152.28,52.64 c 16.41,3.38 30.23,12.93 42.58,23.87 0.75,-0.32 1.5,-0.64 2.26,-0.96 3.19,3.48 8.08,5.03 10.74,9 1.65,1.22 3.35,2.36 5.09,3.44 -8.06,1.03 -13.94,-6.24 -22.01,-5.58 -0.27,-0.73 -0.55,-1.45 -0.82,-2.18 -8.44,-0.46 -14.41,-6.83 -21.69,-10.22 2.67,0.29 5.36,0.46 8.05,0.45 -2.97,-4.25 -6.59,-8 -10.58,-11.3 -5.52,1.03 -9.88,-3.12 -13.62,-6.52 z"
         inkscape:connector-curvature="0"
         style="opacity:1;fill:#898989" />
      <path
         id="path10"
         d="m 139.44,72.52 c 10.18,2.31 16.85,14.38 28.4,9.94 -0.48,0.78 -0.96,1.57 -1.43,2.36 16.08,5.71 32.6,9.68 49.66,10.8 0.52,-1.61 1.03,-3.22 1.53,-4.83 6.07,2.41 13.06,5.86 19.62,3.63 -1.74,7.72 -10,3.95 -15.53,4.96 -0.94,2.14 -1.92,4.26 -2.97,6.35 1.73,0.76 3.47,1.5 5.21,2.27 -4.53,0.17 -10.04,-0.63 -12.72,3.96 -19.42,-6.79 -37.69,-17.56 -56.52,-26.41 0.27,-0.31 0.81,-0.92 1.08,-1.23 -5.25,-2.27 -10.78,-3.86 -16.44,-4.72 0.91,-1.19 1.82,-2.38 2.73,-3.58 -0.87,-1.16 -1.75,-2.33 -2.62,-3.5 z"
         inkscape:connector-curvature="0"
         style="opacity:1;fill:#898989" />
      <path
         id="path12"
         d="m 381.85,84.2 c 10.82,0.2 20.86,6.46 31.47,4.78 -0.31,0.7 -0.62,1.4 -0.93,2.09 9,0.39 18.49,0.08 26.85,3.47 -9.36,-0.55 -19.08,1.43 -27.95,-2.51 -10.32,3.48 -19.78,-5.3 -29.44,-7.83 z"
         inkscape:connector-curvature="0"
         style="opacity:1;fill:#898989" />
      <path
         id="path14"
         d="m 224.22,84.81 c 7.82,1.45 15.81,2.61 23.19,5.69 13.2,-1.25 26.03,5.37 39.26,4.2 6.79,-2 13.73,0.19 20.61,0.08 -27.95,3.41 -57.18,1.98 -83.06,-9.97 z"
         inkscape:connector-curvature="0"
         style="opacity:1;fill:#898989" />
      <path
         id="path16"
         d="m 450.86,95.72 c 1.32,1.85 2.63,3.7 3.98,5.54 -10.27,1.47 -21.08,3.73 -31.2,0.15 1.23,-1.19 2.46,-2.36 3.7,-3.53 -0.01,1.2 -0.01,2.41 -0.01,3.61 4.66,-0.13 9.55,-1.93 13.77,0.97 0.3,-1.03 0.61,-2.06 0.92,-3.08 2.89,-0.3 5.79,-0.6 8.7,-0.88 0.04,-0.93 0.08,-1.85 0.14,-2.78 z"
         inkscape:connector-curvature="0"
         style="opacity:1;fill:#898989" />
      <path
         id="path18"
         d="m 267.03,110.53 c 25.6,1.86 51.16,-7.46 76.02,-13.58 -5.73,3.45 -13.41,3.8 -17.21,9.99 -4.22,7.13 -13.2,0.07 -18.95,4.58 -8.75,5.46 -18.5,0.44 -27.89,0.55 0.57,1.6 1.14,3.19 1.73,4.79 -3.3,-2.3 -7.31,-2.71 -11.13,-1.56 -0.34,-0.94 -0.69,-1.88 -1.02,-2.82 -11.73,-4.42 -24.11,-4.5 -36.43,-3.18 11.22,-7.29 25.15,-2.72 36.89,-4.97 1.68,1.3 3.36,2.61 5.07,3.88 -2.68,-0.41 -5.3,0.16 -7.08,2.32 z"
         inkscape:connector-curvature="0"
         style="opacity:1;fill:#898989" />
      <path
         id="path20"
         d="m 557.57,148.06 c 0.67,-0.46 1.34,-0.91 2.02,-1.37 0.44,0.51 0.89,1.02 1.34,1.54 5.34,-0.95 10.2,2.38 13.81,5.96 0.43,-0.97 0.86,-1.92 1.3,-2.88 2.46,3.97 5.39,7.65 8.99,10.65 -6.09,-2.64 -11.56,-6.46 -17.6,-9.18 -0.35,9.06 -0.06,19.34 -6.98,26.23 -7.12,12.25 -22.93,11.63 -34.05,18.04 -22.77,4.12 -49.49,3.67 -68.42,-11.11 21.67,10.29 47.06,16.19 70.51,6.87 11.21,-0.75 20.86,-5.92 29.29,-12.97 -1.59,0.04 -3.17,0.08 -4.74,0.18 11.53,-5.43 18.79,-25.75 4.53,-31.96 z"
         inkscape:connector-curvature="0"
         style="opacity:1;fill:#898989" />
      <path
         id="path22"
         d="m 585.36,146.49 c 7.31,3.34 14.52,6.97 22.79,6.74 -4.81,0.51 -9.66,0.56 -14.45,-0.1 0.14,0.6 0.41,1.79 0.55,2.38 2.22,1.31 4.45,2.61 6.68,3.92 0.16,-0.54 0.49,-1.62 0.65,-2.16 1.4,3.18 3,6.3 5.24,8.99 0.6,-1.25 1.21,-2.5 1.81,-3.76 4.29,-0.38 8.53,0.43 12.51,2.04 -9.18,1.85 -18.5,4.14 -27.64,0.65 0.08,1.62 0.1,3.25 0.12,4.88 -2.47,-2.08 -4.68,-4.43 -6.9,-6.76 1.19,0.26 2.39,0.5 3.6,0.73 0.62,-4.21 -0.47,-8.32 -4.07,-10.83 1.63,-0.15 3.26,-0.31 4.91,-0.44 -2.85,-1.11 -5.39,-3.03 -5.8,-6.28 z"
         inkscape:connector-curvature="0"
         style="opacity:1;fill:#898989" />
      <path
         id="path24"
         d="m 623.43,156.33 c 12.51,-1.44 22.21,6.85 34.63,5.81 43.94,0.51 90.04,4.03 128.84,25.97 -11.62,-5.97 -24.8,-5.42 -36.71,-10.45 -23.47,-7.51 -48.19,-7.21 -72.41,-10.15 3.54,-0.31 7.09,-0.27 10.63,-0.13 -9.29,-5.81 -20.84,-1.44 -31.04,-3.76 -13.34,-3.43 -28.3,2.12 -40.79,-4.97 2.32,0.07 4.64,0.23 6.95,0.47 -0.03,-0.7 -0.07,-2.09 -0.1,-2.79 z"
         inkscape:connector-curvature="0"
         style="opacity:1;fill:#898989" />
      <path
         id="path26"
         d="m 430.55,162.6 c 4.54,2.62 11.58,2.01 13.35,7.94 4.74,0.67 9.15,2.68 12.13,6.55 -9.17,-1.87 -18.3,-10.21 -27.69,-5.17 0.76,-3.1 1.12,-6.3 2.21,-9.32 z"
         inkscape:connector-curvature="0"
         style="opacity:1;fill:#898989" />
      <path
         id="path28"
         d="m 383.81,173.77 c 14.69,-4.82 29.57,1.41 44.53,-1.85 -6.26,7.55 -16.49,4.71 -25.22,5.82 -0.74,0.43 -1.47,0.87 -2.19,1.3 -0.64,-0.37 -1.27,-0.74 -1.9,-1.11 -2.85,1.63 -5.62,3.4 -8.33,5.26 0.21,1.22 0.43,2.45 0.64,3.68 -1.76,-0.3 -3.52,-0.6 -5.27,-0.91 1.08,-1.06 2.22,-2.05 3.37,-3.05 -0.51,-1.49 -1.03,-2.97 -1.54,-4.45 -2.18,0.77 -4.36,1.56 -6.52,2.37 0.75,-2.36 1.11,-4.92 2.43,-7.06 z"
         inkscape:connector-curvature="0"
         style="opacity:1;fill:#898989" />
      <path
         id="path30"
         d="m 377.27,191.44 c 1.56,0.18 3.12,0.37 4.68,0.57 -6.97,6.81 -14.23,15.76 -24.66,16.38 0.26,0.33 0.78,0.98 1.04,1.3 -14.98,9.26 -30.85,18.94 -49,16.95 -2.58,-0.59 -5.14,-1.26 -7.73,-1.85 -0.17,0.63 -0.51,1.88 -0.68,2.5 -0.17,-1.28 -0.34,-2.55 -0.51,-3.82 -14.86,-1.13 -29.5,-6.07 -44.54,-3.71 18.4,-6 37.17,3.36 56.06,1.77 16.99,3.46 29.89,-9.71 44.83,-14.89 -0.31,-0.31 -0.93,-0.92 -1.24,-1.23 8.29,-2.02 16.62,-7.18 21.75,-13.97 z"
         inkscape:connector-curvature="0"
         style="opacity:1;fill:#898989" />
      <path
         id="path32"
         d="m 361.15,216.36 c 5.32,-2.37 8.79,-8.78 15.11,-8.51 -3.18,3.14 -6.1,6.52 -8.83,10.05 -1.23,0.1 -2.45,0.2 -3.66,0.3 0.08,0.77 0.17,1.54 0.27,2.32 -4.36,1.43 -8.71,3.06 -12.52,5.66 -1.56,-0.34 -3.13,-0.68 -4.69,-1.01 4.79,-2.33 9.58,-4.63 14.29,-7.1 0.01,-0.58 0.02,-1.14 0.03,-1.71 z"
         inkscape:connector-curvature="0"
         style="opacity:1;fill:#898989" />
      <path
         id="path34"
         d="m 325.99,234.59 c 7.62,-3.58 15.61,-7.59 24.15,-7.56 -13.02,8.84 -29.02,9.2 -44.06,11.14 0.6,-0.7 1.2,-1.41 1.81,-2.11 5.56,-0.94 11.53,-0.88 16.29,-4.38 0.6,0.97 1.2,1.94 1.81,2.91 z"
         inkscape:connector-curvature="0"
         style="opacity:1;fill:#898989" />
      <path
         id="path36"
         d="m 36.98,228.12 c 0.69,0.55 1.39,1.1 2.08,1.65 0.16,1.02 0.32,2.04 0.48,3.06 1.03,-0.06 2.06,-0.11 3.09,-0.17 0.68,1.12 1.35,2.25 2.02,3.38 -0.45,1.23 -0.9,2.47 -1.34,3.71 1.56,0.69 3.11,1.41 4.66,2.14 -2.37,-0.33 -4.73,-0.7 -7.09,-1.1 -0.15,-0.81 -0.31,-1.62 -0.48,-2.42 -3.71,-1.18 -7.49,-2.09 -11.3,-2.85 2.21,-1.67 4.77,-2.87 7.6,-2.77 0.1,-1.54 0.19,-3.09 0.28,-4.63 z"
         inkscape:connector-curvature="0"
         style="opacity:1;fill:#898989" />
      <path
         id="path38"
         d="m 192.43,234.2 c 0.3,-0.57 0.61,-1.14 0.92,-1.71 0.41,0.33 1.22,1 1.62,1.33 1.02,-0.5 2.04,-1.01 3.08,-1.48 0.71,1.96 -0.26,3.62 -1.6,5.01 0.21,0.73 0.43,1.47 0.65,2.21 -5.48,4.35 -4.27,12.73 -10.3,16.85 5.83,3.33 6.08,-4.74 9.1,-7.48 -0.1,3.45 -1.57,6.61 -3.45,9.44 -1.77,0.2 -3.54,0.4 -5.31,0.62 -0.38,1.04 -0.76,2.08 -1.14,3.13 1.72,-0.24 3.44,-0.46 5.17,-0.65 -1.24,2.91 -3.9,4.56 -6.64,5.85 -0.56,2.52 -1.51,4.93 -2.81,7.16 -2.12,0.2 -4.24,0.44 -6.35,0.71 -0.65,1.39 -1.29,2.79 -1.92,4.19 -1.52,0.27 -3.03,0.54 -4.54,0.81 0.98,0.55 1.95,1.11 2.93,1.67 -1.15,2.26 -3.41,3.09 -5.85,3.01 5.11,-4.15 3.29,-14.78 -2.06,-6.24 -1.26,0.13 -2.53,0.24 -3.79,0.36 0.11,1.31 0.22,2.63 0.35,3.94 -0.67,0.28 -1.34,0.56 -2.01,0.84 -0.35,-1.76 -0.71,-3.52 -1.06,-5.27 0.62,-0.17 1.87,-0.5 2.49,-0.67 -0.29,-1.28 -0.57,-2.57 -0.84,-3.85 -2.41,-0.18 -4.81,-0.34 -7.2,-0.56 0.86,-1.81 2.02,-3.43 3.39,-4.88 0,1.29 -0.01,2.6 -0.02,3.9 3.3,-4.27 8.02,-5.89 13.32,-5.71 -2.01,-0.97 -4.27,-0.98 -6.46,-0.96 2.81,-1.17 5.01,-3.27 6.56,-5.84 2.37,-0.14 4.82,-0.36 6.8,-1.81 -1.74,-0.13 -3.48,-0.21 -5.22,-0.25 3.83,-5.36 8.13,-9.99 15.43,-8.81 -0.16,-1.8 -0.31,-3.59 -0.46,-5.38 2.64,0.37 4.94,-0.18 4.64,-3.31 1.37,-1.08 2.76,-2.13 4.15,-3.18 -0.53,-1 -1.05,-1.99 -1.57,-2.99 z"
         inkscape:connector-curvature="0"
         style="opacity:1;fill:#898989" />
      <path
         id="path40"
         d="m 54.38,240.21 c 0.44,1.23 0.88,2.46 1.32,3.69 2.6,0.49 5.2,0.97 7.8,1.44 -0.43,0.97 -0.86,1.94 -1.29,2.92 4.18,0 8.08,1.63 8.92,6.1 1.1,-0.18 2.2,-0.37 3.3,-0.55 8.34,6.21 17.09,11.81 25.26,18.27 0.06,-0.87 0.11,-1.73 0.17,-2.59 1,-0.28 2.01,-0.56 3.01,-0.83 -0.18,-0.41 -0.54,-1.24 -0.72,-1.65 -8.9,-5.03 -14.75,-14.07 -22.84,-20.32 7.38,5.38 16.25,9.73 21.61,17.02 1.4,0.22 2.8,0.43 4.21,0.65 0.02,1.07 0.05,2.14 0.08,3.22 7.11,6.63 19.16,14.5 16.81,25.42 -2.55,0.13 -5.1,0.25 -7.65,0.38 -4.27,-4.95 -5.54,-11.95 -10.78,-16.09 0.59,4.39 4.48,8.03 2.38,12.76 -4.25,-8.73 -11.4,-15.53 -20.55,-19.58 0.12,1.18 0.24,2.36 0.37,3.54 -0.76,0.39 -1.52,0.79 -2.28,1.2 -11.56,-11.92 -24.8,-22.93 -39.49,-30.78 3.34,0.13 6.68,0.2 10.03,0.21 0.11,-1.48 0.22,-2.96 0.33,-4.43 z"
         inkscape:connector-curvature="0"
         style="opacity:1;fill:#898989" />
      <path
         id="path42"
         d="m 49.43,241.28 c 5.93,-2.99 0.53,5.57 0,0 z"
         inkscape:connector-curvature="0"
         style="opacity:1;fill:#898989" />
      <path
         id="path44"
         d="m 248.35,261.06 c 4.84,-5.79 12.34,-8.14 18.86,-11.5 0.02,0.6 0.07,1.8 0.1,2.41 2.21,-0.14 4.43,-0.27 6.65,-0.38 -0.29,0.68 -0.57,1.35 -0.85,2.03 -11.99,3.09 -22.87,9.77 -30.64,19.58 -0.87,-0.25 -1.73,-0.5 -2.59,-0.74 0.26,1.27 0.51,2.55 0.77,3.82 -2.13,0.31 -4.27,0.63 -6.4,0.98 0.29,0.87 0.58,1.76 0.87,2.64 -6.07,4.53 -12.38,9.1 -16.82,15.34 -5.87,-1.46 -11.79,0.66 -17.54,1.69 -0.36,2.15 -0.63,4.31 -0.76,6.48 -1.54,0.42 -3.07,0.84 -4.6,1.24 0.26,-0.97 0.51,-1.94 0.78,-2.9 -0.42,-1.22 -0.83,-2.43 -1.25,-3.65 0.52,0.08 1.56,0.24 2.08,0.31 0.03,-0.74 0.06,-1.49 0.09,-2.23 6.05,-2.9 12.08,-5.92 17.53,-9.87 -0.37,-0.86 -0.74,-1.71 -1.11,-2.56 4.97,-0.54 11.48,-0.71 12.38,-6.95 1.35,-0.19 2.7,-0.38 4.06,-0.56 -0.55,-0.79 -1.1,-1.57 -1.64,-2.35 4.3,-4.33 8.69,-9 14.93,-10.33 -0.17,-0.85 -0.31,-1.7 -0.43,-2.55 1.84,0 3.69,0.07 5.53,0.05 z"
         inkscape:connector-curvature="0"
         style="opacity:1;fill:#898989" />
      <path
         id="path46"
         d="m 210.15,273.36 c 9.96,-1.65 17.9,-8 26.24,-13.14 -2.32,5.97 -8.49,8.88 -14.15,10.86 1.26,0.79 2.51,1.59 3.76,2.4 -5.38,1.18 -11.6,2.86 -14.47,8.05 -4.44,2 -8.85,4.09 -13.49,5.55 1.66,-2.96 4.64,-4.58 7.74,-5.67 -0.3,-0.22 -0.9,-0.65 -1.2,-0.86 3.82,-1.13 7.29,-3.1 10.48,-5.46 -1.65,-0.55 -3.26,-1.21 -4.91,-1.73 z"
         inkscape:connector-curvature="0"
         style="opacity:1;fill:#898989" />
      <path
         id="path48"
         d="m 117.1,300.41 c 2.11,0.14 4.22,0.23 6.33,0.06 2.41,3.81 4.56,7.81 7.61,11.17 -0.21,0.38 -0.64,1.15 -0.86,1.53 4.4,0.9 7.62,3.97 8.58,8.39 -4.59,-2.1 -7.9,-5.97 -11.55,-9.31 -1.25,0.87 -2.5,1.73 -3.76,2.59 0.2,-1.92 0.41,-3.83 0.65,-5.74 -4.19,-1.06 -6.57,-4.49 -7,-8.69 z"
         inkscape:connector-curvature="0"
         style="opacity:1;fill:#898989" />
      <path
         id="path50"
         d="m 159.52,318.12 c 7.21,-2.23 10.26,-9.93 16.94,-12.83 -0.88,0.84 -1.72,1.72 -2.56,2.6 0.3,0.98 0.61,1.96 0.94,2.94 1.44,-0.71 2.89,-1.42 4.34,-2.13 1.23,0.37 2.47,0.75 3.71,1.12 -0.16,-0.9 -0.32,-1.8 -0.48,-2.69 1.21,0.6 2.41,1.21 3.62,1.82 1.51,-0.77 3.02,-1.56 4.53,-2.34 -0.05,1.31 -0.11,2.62 -0.16,3.94 -6.42,0.72 -17.33,0.09 -18.46,8.44 -1.17,-1.02 -2.34,-2.02 -3.52,-3.01 -0.63,1.07 -1.25,2.14 -1.87,3.22 -1.45,-0.42 -2.9,-0.83 -4.34,-1.23 0.49,1.01 0.99,2.03 1.49,3.05 -1.36,-0.41 -2.71,-0.82 -4.06,-1.23 -0.03,-0.42 -0.09,-1.25 -0.12,-1.67 z"
         inkscape:connector-curvature="0"
         style="opacity:1;fill:#898989" />
      <path
         id="path52"
         d="m 141.5,323.09 c 1.82,-1.03 3.64,-2.05 5.4,-3.18 -2.08,5.77 -3.98,11.92 -8.65,16.2 -0.98,-1.05 -1.95,-2.09 -2.92,-3.13 3.79,-0.56 6.02,-3.91 4.22,-7.47 0.7,0.04 1.4,0.09 2.09,0.14 -0.05,-0.86 -0.09,-1.71 -0.14,-2.56 z"
         inkscape:connector-curvature="0"
         style="opacity:1;fill:#898989" />
      <path
         id="path54"
         d="m 130.99,344.73 c 0.97,-0.04 1.93,-0.07 2.9,-0.09 3.75,6.59 -0.21,13.35 -2.63,19.55 -0.56,-6.48 -0.36,-12.97 -0.27,-19.46 z"
         inkscape:connector-curvature="0"
         style="opacity:1;fill:#898989" />
      <path
         id="path56"
         d="m 147.17,345.87 c 5.18,1.11 -3.37,4.03 0,0 z"
         inkscape:connector-curvature="0"
         style="opacity:1;fill:#898989" />
      <path
         id="path58"
         d="m 141.89,354.97 c 0.85,-2.03 1.82,-3.99 2.73,-5.98 0.2,2.48 0.37,4.96 0.57,7.45 0.9,-1.62 1.83,-3.23 2.73,-4.85 0.78,0.03 1.57,0.08 2.35,0.18 -0.36,0.96 -0.72,1.93 -1.08,2.9 2.69,0.44 5.38,0.96 8.02,1.65 -2.9,0.71 -5.9,0.74 -8.83,0.24 -1.02,4.26 2.48,7.91 1.87,12.19 -1.81,-0.6 -3.6,-1.2 -5.39,-1.83 -3.63,4.21 -6.28,9.14 -9.77,13.46 1.55,-6.22 1.83,-14.57 9.64,-16.05 -0.83,-1.21 -1.65,-2.41 -2.44,-3.63 -0.84,0.63 -1.68,1.27 -2.52,1.92 -0.28,-1.75 -0.53,-3.5 -0.78,-5.25 1.65,0.39 3.31,0.78 4.96,1.19 -0.73,-1.18 -1.49,-2.34 -2.06,-3.59 z"
         inkscape:connector-curvature="0"
         style="opacity:1;fill:#898989" />
      <path
         id="path60"
         d="m 160.8,374.3 c 9.51,-7.9 15.81,5.41 24.61,3.62 -1.63,1.12 -3.22,2.27 -4.83,3.41 1.72,3.93 5.8,4.84 9.67,3.89 1.51,-1.32 3.09,-2.55 4.73,-3.71 0.08,1.74 0.14,3.49 0.2,5.24 1.04,0.57 2.08,1.13 3.13,1.7 -0.17,-1.67 -0.38,-3.35 -0.54,-5.02 2.76,1.16 5.3,2.99 8.38,3.17 -1.24,-1.92 -2.55,-3.78 -3.91,-5.6 4.27,2.06 8.99,3.22 13.71,2.15 -1.68,-1.15 -3.38,-2.28 -5.08,-3.4 2.74,-0.9 5.49,-1.79 8.23,-2.69 -0.86,-0.83 -1.71,-1.64 -2.57,-2.46 2.16,-0.89 4.26,-1.93 6.28,-3.1 2.16,1.07 4.3,2.19 6.42,3.34 1.7,-0.42 3.41,-0.78 5.11,-1.19 0.59,1.33 1.19,2.67 1.79,4 0.83,-0.34 1.67,-0.67 2.51,-1 0.25,2.4 0.54,4.81 0.92,7.2 1.14,-0.41 2.29,-0.81 3.43,-1.22 0.37,1.67 0.72,3.35 1.12,5.02 1.2,-0.12 2.4,-0.24 3.61,-0.35 -1.85,-3.82 -4.64,-7.06 -8.02,-9.61 2.87,-0.33 5.74,-0.64 8.63,-0.79 -0.1,-0.63 -0.3,-1.89 -0.4,-2.52 -1.26,-0.5 -2.52,-1 -3.78,-1.49 0.01,-0.39 0.04,-1.18 0.05,-1.57 5.36,0.56 10.19,3.16 14.39,6.41 -6.96,-0.4 -8.1,4.25 -1.86,7.12 -1.54,0.95 -3.08,1.91 -4.61,2.87 1.13,0.36 2.27,0.72 3.4,1.09 0.09,1.13 0.17,2.26 0.25,3.4 -0.81,0.07 -1.61,0.13 -2.42,0.2 3.31,7.86 -7.81,8.14 -12.78,7.74 2.6,0.87 5.23,1.68 7.88,2.42 -0.06,3.34 -0.24,6.68 -0.71,9.99 0.67,0.94 1.35,1.88 2.03,2.82 -3.77,-0.22 -7.48,0.59 -10.81,2.36 1.46,0.17 2.92,0.33 4.39,0.49 -2.65,4.76 -1.6,10.06 0.36,14.83 -8.03,1.16 -8.35,-14.72 -14.79,-9.08 -0.32,-2.11 0.51,-4.1 1.29,-6 1.53,1.12 3.05,2.28 4.56,3.45 4.24,-5.32 1.82,-11.78 2.41,-17.87 -5.91,-4.87 -11.83,-10.18 -19.47,-12.1 0.2,-0.82 0.41,-1.64 0.62,-2.45 -14.52,-4.49 -28.51,7.98 -42.53,0.56 -1.12,0.57 -2.24,1.15 -3.36,1.74 0.84,0.72 1.68,1.44 2.53,2.17 -2.12,0.1 -4.24,0.2 -6.36,0.32 0.33,-0.44 0.99,-1.32 1.31,-1.76 -1.34,-1.14 -2.68,-2.29 -4.01,-3.45 2.86,0.03 5.72,0.25 8.55,0.64 -0.29,-0.87 -0.59,-1.73 -0.87,-2.59 -1.07,-0.77 -2.14,-1.53 -3.21,-2.27 2.39,-1.02 5.11,-1.92 6.16,-4.57 -3.99,0.42 -7.96,1.12 -11.99,1.09 -0.08,-0.56 -0.26,-1.68 -0.35,-2.24 2.58,-0.36 5.15,-0.87 7.66,-1.58 -2.99,-2.91 -7.24,-2.52 -11.06,-2.77 z"
         inkscape:connector-curvature="0"
         style="opacity:1;fill:#898989" />
      <path
         id="path62"
         d="m 163.84,394.93 c 1.59,-0.38 3.18,-0.76 4.77,-1.13 0.3,1.45 0.6,2.9 0.89,4.36 8.17,-2.38 16.66,-0.65 25,-1.34 -1.09,3.11 -2.04,6.26 -2.96,9.42 -0.32,0.21 -0.94,0.65 -1.26,0.87 -5.39,-2.48 -11.88,5.64 -16.35,-0.81 2.36,-0.11 4.71,-0.19 7.07,-0.27 -5.51,-8.39 -15.46,-1.05 -23.16,-3.48 2.54,-1.22 5.17,-2.21 7.83,-3.12 0.12,-0.47 0.36,-1.4 0.48,-1.86 -1.14,-0.16 -2.28,-0.31 -3.42,-0.46 0.37,-0.73 0.74,-1.46 1.11,-2.18 z"
         inkscape:connector-curvature="0"
         style="opacity:1;fill:#898989" />
      <path
         id="path64"
         d="m 651.8,413.99 c 9.37,-1.33 9.17,-12.28 14.22,-18.01 0.78,7.88 -5.8,13.56 -6.4,21.14 2.45,-0.91 4.87,-1.89 7.27,-2.92 -0.86,1.74 -1.7,3.49 -2.53,5.25 6.61,4.25 14.62,2.95 21.74,5.55 -1.42,0.53 -2.84,1.05 -4.25,1.58 9.96,2.39 20.53,2.53 30.33,-0.65 0.06,1.01 0.12,2.03 0.19,3.06 0.93,-0.8 1.87,-1.6 2.81,-2.39 1.24,0.52 2.47,1.05 3.72,1.59 -14.69,3.27 -32.01,2.03 -46.39,-3.93 -9.67,-2.36 -14.94,6.99 -22.6,10.52 -0.1,-0.37 -0.29,-1.12 -0.39,-1.49 3.02,-3.78 5.01,-8.23 7.51,-12.35 -1.39,-0.03 -2.77,-0.05 -4.14,-0.06 -0.31,0.94 -0.6,1.89 -0.89,2.84 -0.84,0.07 -1.67,0.14 -2.5,0.22 0.34,-0.49 1.01,-1.47 1.34,-1.95 -0.36,-0.26 -1.09,-0.77 -1.45,-1.03 0.96,-2.27 1.68,-4.62 2.41,-6.97 z"
         inkscape:connector-curvature="0"
         style="opacity:1;fill:#898989" />
      <path
         id="path66"
         d="m 209.68,412.41 c 6.13,-6.15 15.53,-0.61 12.68,7.64 -2.08,0.31 -4.15,0.63 -6.22,0.94 -0.13,1.39 -0.26,2.79 -0.43,4.19 -0.58,-0.21 -1.74,-0.64 -2.31,-0.85 0.46,-2.1 0.94,-4.2 1.44,-6.29 -1.69,-1.91 -3.42,-3.79 -5.16,-5.63 z"
         inkscape:connector-curvature="0"
         style="opacity:1;fill:#898989" />
      <path
         id="path68"
         d="m 782,417.52 c 1.83,-0.83 3.69,-1.63 5.61,-2.27 5,4.54 11.65,2.26 17.55,1.6 13.58,-2.74 27.29,-0.27 40.84,1.4 l 0,4.83 c -20.82,-2.75 -42.1,-3.72 -63.07,-2.05 2.53,-0.74 5.06,-1.49 7.6,-2.2 -2.86,-0.38 -5.7,-0.8 -8.53,-1.31 z"
         inkscape:connector-curvature="0"
         style="opacity:1;fill:#898989" />
      <path
         id="path70"
         d="m 227.62,427.65 c 0.5,-0.3 1.5,-0.89 2,-1.18 0.7,2.82 2.51,5.12 4.59,7.07 -5.98,2.47 1.42,6.21 2.26,9.81 -0.77,0.63 -1.53,1.27 -2.28,1.91 3.49,1.49 6.9,3.24 9.9,5.6 -2.85,0.66 -5.43,-0.82 -7.8,-2.19 -0.4,-0.22 -1.2,-0.67 -1.6,-0.89 -6.86,1.69 -2.56,-7.99 -6.87,-10.87 0.43,-0.04 1.29,-0.13 1.72,-0.18 -0.91,-0.45 -1.81,-0.9 -2.7,-1.34 0.22,-2.59 0.48,-5.17 0.78,-7.74 z"
         inkscape:connector-curvature="0"
         style="opacity:1;fill:#898989" />
      <path
         id="path72"
         d="m 218.11,432.19 c 7.82,3.44 6.71,13.81 7.11,21.05 -0.19,0.04 -0.57,0.12 -0.76,0.17 -1.51,-0.9 -3.04,-1.76 -4.59,-2.56 -2.06,-5.93 -2.02,-12.46 -1.76,-18.66 z"
         inkscape:connector-curvature="0"
         style="opacity:1;fill:#898989" />
      <path
         id="path74"
         d="m 341.42,442.9 c 3.77,2.26 7.76,4.16 12.05,5.22 -0.94,-1.87 -1.9,-3.72 -2.88,-5.56 1.09,0.47 2.19,0.96 3.29,1.45 0.45,1.21 0.89,2.42 1.34,3.65 1.31,-0.83 2.62,-1.65 3.93,-2.47 0.86,0.62 1.71,1.24 2.58,1.87 -1.1,-0.3 -2.2,-0.6 -3.28,-0.9 0.1,1.74 0.21,3.47 0.33,5.21 -6.15,-0.53 -14.91,-3.5 -19.38,1.68 4.16,-0.03 8.34,-0.11 12.51,-0.01 -2.69,0.71 -5.3,1.72 -7.7,3.14 2.44,0.96 4.97,1.66 7.54,2.17 -1.69,0.65 -3.38,1.33 -5.05,2.03 1.73,0.32 3.47,0.63 5.2,0.95 -1.81,0.35 -3.62,0.72 -5.43,1.09 -0.61,0.8 -1.2,1.62 -1.77,2.45 1.53,0.64 3.07,1.27 4.61,1.92 0.14,0.41 0.43,1.25 0.58,1.66 -2.01,0.21 -4.01,0.43 -6.01,0.66 0.81,1.19 1.63,2.38 2.46,3.57 -1.6,0.79 -3.2,1.59 -4.8,2.4 1.57,3.56 1.4,7.48 -0.17,11.02 -0.99,-1.69 -1.87,-3.44 -2.64,-5.23 1.19,-0.14 2.39,-0.28 3.59,-0.41 -3.02,-1.89 -5.91,-3.98 -8.74,-6.13 0.37,-0.89 0.74,-1.78 1.12,-2.67 -0.95,-0.15 -1.89,-0.29 -2.82,-0.43 -0.63,2.1 -1.19,4.23 -1.55,6.4 -1.29,1.77 -2.61,3.51 -3.94,5.25 -6.34,-2.44 -9.53,5.45 -9.61,10.48 2.41,10.16 10.77,18.9 20.38,22.72 -12.13,-0.16 -17.75,-12.37 -22.75,-21.49 -0.33,-5.63 3.69,-11.25 0.91,-16.83 -1.72,-0.38 -3.42,-0.77 -5.13,-1.16 1.24,-1.04 2.45,-2.1 3.69,-3.13 3.44,1.94 6.91,3.83 10.3,5.86 7.43,-5.59 -1.9,-11.94 -6.88,-14.97 -9.42,-6.88 -22.09,0.3 -31.58,-4.96 -0.14,0.87 -0.28,1.74 -0.42,2.63 -9.12,1.79 -18.57,8.32 -27.68,2.78 0.11,-0.45 0.31,-1.36 0.42,-1.82 17.51,-1.04 33.85,-7.57 51.55,-6.16 4.64,-7.44 10.7,-0.1 16.74,0.08 -1.01,-2.17 -2.06,-4.33 -3.07,-6.49 0.3,0 0.9,0 1.2,0 3.34,4.41 9.38,1.04 13.81,0.55 0.16,-0.85 0.33,-1.7 0.5,-2.54 1.74,0.18 3.49,0.35 5.24,0.52 -0.84,-2.03 -1.7,-4.04 -2.59,-6.05 z"
         inkscape:connector-curvature="0"
         style="opacity:1;fill:#898989" />
      <path
         id="path76"
         d="m 592.96,458.69 c 7.91,-3.87 17.72,-10.35 25.39,-2.25 -9.88,1.23 -18.77,5.05 -26.27,11.61 0.55,-2.68 0.98,-5.58 3.18,-7.48 -0.76,-0.64 -1.54,-1.27 -2.3,-1.88 z"
         inkscape:connector-curvature="0"
         style="opacity:1;fill:#898989" />
      <path
         id="path78"
         d="m 229.77,459.27 c 4.38,4.54 10.55,6.39 16.64,7.2 0.01,0.72 0.01,1.44 0.02,2.17 3.51,0.44 8.57,2.86 4.09,6.16 -0.16,-0.57 -0.48,-1.69 -0.65,-2.25 -4.22,3.8 -8.77,0 -12.68,-2.2 0.85,-0.81 1.73,-1.57 2.59,-2.37 -2.02,-0.14 -4.03,-0.3 -6.04,-0.47 -1.72,-2.54 -3.53,-5.13 -3.97,-8.24 z"
         inkscape:connector-curvature="0"
         style="opacity:1;fill:#898989" />
      <path
         id="path80"
         d="m 645.06,463.93 c 0.68,0.1 1.37,0.2 2.06,0.31 8.91,11.51 14.21,27.62 9.84,41.92 -0.24,-1.93 -0.52,-3.86 -0.73,-5.79 -1.97,0.67 -3.94,1.32 -5.9,1.98 -0.21,0.52 -0.63,1.56 -0.84,2.08 1.27,0.11 2.55,0.24 3.84,0.36 -1.17,3.97 -2.99,7.71 -5.38,11.09 -8.43,-2.27 -11.25,8.35 -17.27,11.75 -12.56,9.14 -26.22,-4.41 -38.15,-7.49 0.9,-1.19 1.8,-2.38 2.71,-3.56 -1.77,-0.04 -3.53,-0.07 -5.29,-0.1 0.25,-2.77 0.55,-5.54 0.89,-8.3 -0.92,0.72 -1.83,1.45 -2.74,2.18 -1.55,-1.59 -3.12,-3.18 -4.68,-4.75 -1.67,-0.26 -3.34,-0.51 -5,-0.77 2.01,-0.81 4.03,-1.57 6.07,-2.32 -0.67,-0.4 -1.32,-0.79 -1.97,-1.17 0.83,-0.78 1.69,-1.54 2.52,-2.32 0.77,-0.77 1.53,-1.55 2.32,-2.32 3.8,0.11 7.59,2.53 1.8,4.04 10.08,-1.26 9.23,11.02 16.62,14.63 -1.3,0.48 -2.59,0.97 -3.88,1.47 1.68,0.17 3.36,0.36 5.05,0.54 -0.87,0.85 -1.73,1.71 -2.59,2.56 15.61,5.23 30.09,-7.57 39.92,-18.72 6.18,-6.16 -0.02,-13.72 -2.36,-20.08 1.94,2.23 4.33,4 7.02,5.25 -0.11,-2.26 -0.24,-4.52 -0.33,-6.78 0.83,2.79 1.05,5.96 3.15,8.2 1.38,-9.51 -9.71,-13.02 -11.65,-21.92 1.64,-0.66 3.29,-1.32 4.95,-1.97 z"
         inkscape:connector-curvature="0"
         style="opacity:1;fill:#898989" />
      <path
         id="path82"
         d="m 229.86,474.08 c 1.57,0.42 3.16,0.8 4.74,1.2 -0.22,1.21 -0.44,2.44 -0.66,3.66 4.74,0.13 9.06,2.11 13.4,3.79 0.62,-1.17 1.25,-2.33 1.88,-3.49 0.31,0.01 0.93,0.02 1.24,0.02 -0.03,1.72 -0.09,3.44 -0.14,5.17 3.71,-3.24 8.02,-0.31 11.67,1.41 -10.94,0.07 -27.59,0.67 -32.13,-11.76 z"
         inkscape:connector-curvature="0"
         style="opacity:1;fill:#898989" />
      <path
         id="path84"
         d="m 263.73,485.56 c 6.52,-6.09 18.25,-6 26.56,-4.94 -0.89,1.01 -1.78,2.02 -2.68,3.03 3.02,8.72 6.37,17.21 10.34,25.52 -6.18,-6.35 -10.43,-14.16 -10.75,-23.12 -7.78,-4.38 -15.36,2.78 -23.47,-0.49 z"
         inkscape:connector-curvature="0"
         style="opacity:1;fill:#898989" />
      <path
         id="path86"
         d="m 301.53,480.16 c 0.41,0.11 1.24,0.32 1.65,0.42 0.18,3.81 2.42,7.37 1.62,11.23 1.29,2.51 2.15,5.24 1.53,8.08 4.84,3.66 10.54,7 12.46,13.19 -7.5,-1.29 -13.92,-5.91 -18.95,-11.43 0.45,-3.28 -0.02,-6.56 -1.23,-9.63 2.1,-3.61 2.93,-7.71 2.92,-11.86 z"
         inkscape:connector-curvature="0"
         style="opacity:1;fill:#898989" />
      <path
         id="path88"
         d="m 513.21,494.49 c 8.69,-8.82 25.48,-10.46 33.92,-1.85 -12.76,-2.3 -27.21,-1.09 -37.47,7.61 -0.55,-0.71 -1.09,-1.41 -1.62,-2.11 -0.91,2.83 -2.07,5.62 -4.07,7.87 0.59,-5.51 3.48,-10.31 6.37,-14.9 0.96,1.11 1.92,2.24 2.87,3.38 z"
         inkscape:connector-curvature="0"
         style="opacity:1;fill:#898989" />
      <path
         id="path90"
         d="m 392.65,497.89 c 6.56,-5.28 15.28,-1.18 22.79,-1.05 -0.02,1.26 -0.03,2.53 -0.04,3.8 -4.06,-1.48 -8.19,-2.93 -12.54,-3.16 0.01,0.64 0.02,1.93 0.02,2.58 1.7,0.05 3.41,0.1 5.11,0.17 -1.3,0.64 -2.59,1.3 -3.88,1.96 1.17,1.14 2.35,2.29 3.54,3.44 -1.25,0.23 -2.49,0.46 -3.72,0.71 1.85,1.25 3.73,2.5 5.61,3.73 -1.61,1.89 -3.18,3.81 -4.73,5.75 -1.64,-0.9 -3.26,-1.84 -4.89,-2.73 0.52,1.61 1.06,3.21 1.59,4.83 -0.84,1.85 -1.65,3.7 -2.43,5.57 -3.85,0.06 -7.68,0.49 -11.42,1.39 3.53,11.35 16.54,21.15 28.61,18.17 6.43,7.06 13.87,1.41 20.92,-0.07 8.53,2.81 12.26,-5.9 18.47,-9.41 -1.85,3.87 -4.16,7.91 -8.15,9.91 -17.29,6.71 -37.74,7.53 -54.16,-1.92 -6.45,-7.04 -15.2,-15.74 -14.03,-25.96 -6.94,0.99 -13.57,1.01 -20.45,-0.87 6.05,-0.22 7.31,-6.67 9.49,-11.07 5.95,1.07 11.5,-1.86 17.39,-2.02 1.04,-1.42 2.04,-2.87 3.06,-4.3 2.88,3.71 7.6,4.33 11.99,3.9 -1.88,-2.71 -5.13,-3.07 -8.15,-3.35 z"
         inkscape:connector-curvature="0"
         style="opacity:1;fill:#898989" />
      <path
         id="path92"
         d="m 561.12,505.85 c 7.18,5.85 10.21,14.89 13.66,23.14 1.78,2.82 -3.02,8.16 2.38,7.57 -2.27,11.79 -15.42,14.34 -23.42,21.17 -6.21,5.69 -15.06,5.91 -22.9,4.42 5.15,-0.24 10.24,-1.11 15.32,-1.98 -1.32,-1.05 -2.64,-2.1 -3.95,-3.14 -1.33,1.34 -2.6,2.72 -3.93,4.06 -5.65,-4.12 -15.45,-3.08 -17.39,-11.26 4.67,-1.44 8.24,2.6 12.14,4.41 -1.88,-3.13 -4.45,-5.73 -6.99,-8.3 5,1.02 10.01,2.07 15,3.18 -0.43,-1.58 -0.85,-3.16 -1.28,-4.72 -1.37,-0.45 -2.73,-0.88 -4.08,-1.32 -0.23,-0.32 -0.69,-0.96 -0.92,-1.28 5.13,1.07 11.37,-1.23 14.94,3.86 0.59,-1.85 1.21,-3.68 1.85,-5.5 2.33,-0.28 4.65,-0.69 6.92,-1.27 -2.24,-0.69 -4.51,-1.28 -6.81,-1.68 7.85,0.46 8.36,-8.84 10.65,-14.28 1.26,-0.16 2.53,-0.31 3.81,-0.46 -1.82,-5.5 -3.42,-11.05 -5,-16.62 z"
         inkscape:connector-curvature="0"
         style="opacity:1;fill:#898989" />
      <path
         id="path94"
         d="m 484.79,516.6 c 3.54,-0.95 7.04,-2.01 10.48,-3.27 -0.94,4.26 -0.68,8.64 0.25,12.88 -2.61,0.5 -5.21,1.02 -7.8,1.54 0.95,0.54 1.9,1.09 2.87,1.63 -0.86,0.8 -1.72,1.6 -2.57,2.41 0.57,0.54 1.14,1.1 1.72,1.66 -1.75,2.03 -0.69,4.18 0.83,5.98 -2.11,1.07 -4.22,2.15 -6.33,3.24 1.38,0.3 2.77,0.62 4.17,0.94 -0.05,5.52 0.84,11.12 -0.32,16.58 -0.75,0.23 -1.49,0.47 -2.23,0.71 0.79,-7.6 -6.18,-15.43 -2.06,-22.46 -0.73,-1.48 -1.5,-2.94 -2.28,-4.38 1.26,-0.17 2.52,-0.33 3.79,-0.49 -0.56,-2.13 -1.4,-4.16 -2.45,-6.08 5.35,-1.11 12.92,-3.5 8.09,-10.21 -2.06,-0.22 -4.11,-0.45 -6.16,-0.68 z"
         inkscape:connector-curvature="0"
         style="opacity:1;fill:#898989" />
      <path
         id="path96"
         d="m 313.29,517.02 c 7.15,2.79 14.47,5.17 22.02,6.63 -4.33,-0.18 -8.65,-0.32 -12.98,-0.37 2.77,1.79 5.73,3.24 8.77,4.53 -5.54,-0.1 -11.24,-1.34 -15.63,-4.89 0.12,-0.87 0.24,-1.73 0.36,-2.58 -0.85,-1.11 -1.7,-2.22 -2.54,-3.32 z"
         inkscape:connector-curvature="0"
         style="opacity:1;fill:#898989" />
      <path
         id="path98"
         d="m 472.79,520.38 c 3.65,-2.21 7.85,-3.07 12,-3.78 -2.3,4.92 -7.74,6.26 -12.42,7.87 0.14,-1.37 0.28,-2.73 0.42,-4.09 z"
         inkscape:connector-curvature="0"
         style="opacity:1;fill:#898989" />
      <path
         id="path100"
         d="m 361.03,526.81 c 0.64,-1.28 1.3,-2.53 1.95,-3.8 0.6,3.18 2.93,2.38 5.13,1.12 4.23,2.66 7.01,7.45 12.23,8.45 -1.04,0.59 -2.09,1.19 -3.13,1.8 3.79,0.74 5.92,3.78 6.9,7.32 -5,-2.05 -10.18,-4.52 -15.68,-2.73 -0.04,-1.23 -0.08,-2.44 -0.12,-3.66 -4.75,-1.06 -10.08,-5.1 -10.03,-10.32 0.92,0.59 1.83,1.2 2.75,1.82 z"
         inkscape:connector-curvature="0"
         style="opacity:1;fill:#898989" />
      <path
         id="path102"
         d="m 503.88,526.94 c 4.07,3.6 7.19,8.69 13.04,9.53 0.25,1.26 0.51,2.52 0.77,3.79 3.09,1.39 6.26,2.9 8.35,5.68 -3.86,1.1 -7.81,2.24 -10.95,4.88 0.47,-1.95 0.92,-3.89 1.36,-5.83 -7.42,-2.78 -10.41,-11.1 -12.57,-18.05 z"
         inkscape:connector-curvature="0"
         style="opacity:1;fill:#898989" />
      <path
         id="path104"
         d="m 402.9,551.96 c 10.22,5.48 21.09,2.01 31.79,1.37 0.3,2.79 1.05,5.52 2.52,7.93 -0.52,1.18 -1.05,2.34 -1.58,3.52 -2.09,-2.1 -4.09,-4.3 -6.03,-6.54 0.78,-0.44 1.55,-0.9 2.31,-1.39 -9.82,-0.43 -21.05,2.9 -29.01,-4.89 z"
         inkscape:connector-curvature="0"
         style="opacity:1;fill:#898989" />
      <path
         id="path106"
         d="m 451.72,574.43 c -0.56,-7.7 -10.8,-13.25 -6.2,-21.34 2.7,2.56 5.56,5.01 8.96,6.59 -0.29,-1.37 -0.57,-2.73 -0.86,-4.08 1.8,1.55 3.63,3.08 5.48,4.59 -2.82,0.09 -5.63,0.45 -8.32,1.31 -0.62,1.3 -1.25,2.59 -1.88,3.89 10.45,9.29 18.78,22.47 33.82,24.38 -2.44,2.92 -7.54,4.62 -10,0.81 -0.72,0.42 -1.44,0.85 -2.14,1.29 -4.21,-8.67 -16.72,-6.82 -18.86,-17.44 z"
         inkscape:connector-curvature="0"
         style="opacity:1;fill:#898989" />
    </g>
    <g
       id="#080808ff"
       transform="translate(-204.46525,-43.289115)">
      <path
         id="path109"
         d="m 144.72,46.89 c 0.26,-1.38 0.52,-2.75 0.79,-4.12 0.7,0.97 1.41,1.95 2.12,2.92 0.77,-0.99 1.54,-1.98 2.31,-2.98 25.91,11.72 50.44,26.67 74.28,42.1 25.88,11.95 55.11,13.38 83.06,9.97 15.99,2.07 28.81,-9.8 44.25,-10.93 10.03,-0.96 20.88,-5.14 30.32,0.35 9.66,2.53 19.12,11.31 29.44,7.83 8.87,3.94 18.59,1.96 27.95,2.51 15.63,-6.02 29.34,5.75 44.78,5.53 9.11,0.29 16.67,5.9 22.29,12.63 25.27,13.36 51.43,25.92 79.05,33.79 0.41,3.25 2.95,5.17 5.8,6.28 -1.65,0.13 -3.28,0.29 -4.91,0.44 3.6,2.51 4.69,6.62 4.07,10.83 -1.21,-0.23 -2.41,-0.47 -3.6,-0.73 -0.42,-0.34 -1.27,-1.01 -1.69,-1.35 -3.6,-3 -6.53,-6.68 -8.99,-10.65 -0.44,0.96 -0.87,1.91 -1.3,2.88 -3.61,-3.58 -8.47,-6.91 -13.81,-5.96 -0.45,-0.52 -0.9,-1.03 -1.34,-1.54 -0.68,0.46 -1.35,0.91 -2.02,1.37 -17.4,-5.84 -34.75,-13.03 -48.72,-24.91 -4.33,-11.44 -15.83,-20.05 -28.27,-19.55 -8.88,0.68 -17.13,-7.41 -25.74,-2.34 -1.35,-1.84 -2.66,-3.69 -3.98,-5.54 -0.06,0.93 -0.1,1.85 -0.14,2.78 -2.91,0.28 -5.81,0.58 -8.7,0.88 -0.31,1.02 -0.62,2.05 -0.92,3.08 -4.22,-2.9 -9.11,-1.1 -13.77,-0.97 0,-1.2 0,-2.41 0.01,-3.61 -1.24,1.17 -2.47,2.34 -3.7,3.53 -7.43,-2.24 -14.58,-5.34 -22.27,-6.65 -8.2,-1.43 -16.55,-8.54 -24.58,-2.89 -11.43,-2.57 -22.67,2.41 -33.74,5.08 -24.86,6.12 -50.42,15.44 -76.02,13.58 1.78,-2.16 4.4,-2.73 7.08,-2.32 -1.71,-1.27 -3.39,-2.58 -5.07,-3.88 -11.74,2.25 -25.67,-2.32 -36.89,4.97 -6.56,3.18 -13.99,3.66 -20.86,5.95 -0.02,-0.82 -0.06,-2.47 -0.08,-3.29 2.68,-4.59 8.19,-3.79 12.72,-3.96 -1.74,-0.77 -3.48,-1.51 -5.21,-2.27 1.05,-2.09 2.03,-4.21 2.97,-6.35 5.53,-1.01 13.79,2.76 15.53,-4.96 -6.56,2.23 -13.55,-1.22 -19.62,-3.63 -1.56,-0.92 -3.08,-1.9 -4.65,-2.8 -1.74,-1.08 -3.44,-2.22 -5.09,-3.44 -2.66,-3.97 -7.55,-5.52 -10.74,-9 -0.76,0.32 -1.51,0.64 -2.26,0.96 -12.35,-10.94 -26.17,-20.49 -42.58,-23.87 -2.3,-2.2 -4.77,-4.21 -7.56,-5.75 z"
         inkscape:connector-curvature="0"
         style="opacity:1;fill:#080808" />
      <path
         id="path111"
         d="m 593.7,153.13 c 4.79,0.66 9.64,0.61 14.45,0.1 5.19,0.49 10.27,1.7 15.28,3.1 0.03,0.7 0.07,2.09 0.1,2.79 -2.31,-0.24 -4.63,-0.4 -6.95,-0.47 12.49,7.09 27.45,1.54 40.79,4.97 10.2,2.32 21.75,-2.05 31.04,3.76 -3.54,-0.14 -7.09,-0.18 -10.63,0.13 -18.9,-0.1 -38.38,4.1 -56.64,-2.97 -3.98,-1.61 -8.22,-2.42 -12.51,-2.04 -0.6,1.26 -1.21,2.51 -1.81,3.76 -2.24,-2.69 -3.84,-5.81 -5.24,-8.99 -0.16,0.54 -0.49,1.62 -0.65,2.16 -2.23,-1.31 -4.46,-2.61 -6.68,-3.92 -0.14,-0.59 -0.41,-1.78 -0.55,-2.38 z"
         inkscape:connector-curvature="0"
         style="opacity:1;fill:#080808" />
      <path
         id="path113"
         d="m 428.34,171.92 c 9.39,-5.04 18.52,3.3 27.69,5.17 11.98,2.62 21.67,11.56 34.31,11.47 20.84,1.97 44.35,3.3 62.7,-8.54 1.57,-0.1 3.15,-0.14 4.74,-0.18 -8.43,7.05 -18.08,12.22 -29.29,12.97 -23.45,9.32 -48.84,3.42 -70.51,-6.87 -29.01,-5.26 -60.98,-0.54 -81.72,21.91 -6.32,-0.27 -9.79,6.14 -15.11,8.51 -0.01,0.57 -0.02,1.13 -0.03,1.71 -4.71,2.47 -9.5,4.77 -14.29,7.1 1.56,0.33 3.13,0.67 4.69,1.01 -0.34,0.21 -1.04,0.64 -1.38,0.85 -8.54,-0.03 -16.53,3.98 -24.15,7.56 -0.61,-0.97 -1.21,-1.94 -1.81,-2.91 -4.76,3.5 -10.73,3.44 -16.29,4.38 -14.41,1.85 -26.85,9.12 -40.68,13.5 -6.52,3.36 -14.02,5.71 -18.86,11.5 -1.84,0.02 -3.69,-0.05 -5.53,-0.05 0.12,0.85 0.26,1.7 0.43,2.55 -6.24,1.33 -10.63,6 -14.93,10.33 0.54,0.78 1.09,1.56 1.64,2.35 -1.36,0.18 -2.71,0.37 -4.06,0.56 -0.9,6.24 -7.41,6.41 -12.38,6.95 0.37,0.85 0.74,1.7 1.11,2.56 -5.45,3.95 -11.48,6.97 -17.53,9.87 -0.03,0.74 -0.06,1.49 -0.09,2.23 -0.52,-0.07 -1.56,-0.23 -2.08,-0.31 -6.78,-0.17 -12.19,5.18 -18.47,7.19 -6.68,2.9 -9.73,10.6 -16.94,12.83 0.03,0.42 0.09,1.25 0.12,1.67 -7.51,5.09 -2.27,14.47 -5.92,20.75 -0.3,-1.8 -0.55,-3.6 -0.75,-5.41 -1.2,2.49 -2.55,4.91 -4.03,7.25 -0.66,-2.23 -1.41,-4.42 -2.28,-6.58 1.69,7.21 -5.87,12.08 -4.77,19.17 0.57,1.25 1.33,2.41 2.06,3.59 -1.65,-0.41 -3.31,-0.8 -4.96,-1.19 0.25,1.75 0.5,3.5 0.78,5.25 0.84,-0.65 1.68,-1.29 2.52,-1.92 0.79,1.22 1.61,2.42 2.44,3.63 -7.81,1.48 -8.09,9.83 -9.64,16.05 -4.72,6.22 -0.23,12.92 0.29,19.6 -2.33,-0.42 -4.66,-0.84 -7.01,-1.19 2.45,1.15 4.98,2.12 7.54,2.99 -2.86,2.59 -2.85,5.79 -0.21,8.54 -0.44,1.24 -0.89,2.49 -1.33,3.74 2.21,-1.49 4.44,-2.95 6.69,-4.38 1.8,7.61 9.23,8.69 15.54,10.66 10.88,3.01 29.19,5.95 35.88,-5.45 -2.25,-0.3 -4.51,-0.58 -6.76,-0.88 0.4,-2.94 1.97,-5.42 4.56,-6.9 0.32,-0.22 0.94,-0.66 1.26,-0.87 0.92,-3.16 1.87,-6.31 2.96,-9.42 -8.34,0.69 -16.83,-1.04 -25,1.34 -0.29,-1.46 -0.59,-2.91 -0.89,-4.36 2.12,-0.12 4.24,-0.22 6.36,-0.32 -0.85,-0.73 -1.69,-1.45 -2.53,-2.17 1.12,-0.59 2.24,-1.17 3.36,-1.74 14.02,7.42 28.01,-5.05 42.53,-0.56 -0.21,0.81 -0.42,1.63 -0.62,2.45 7.64,1.92 13.56,7.23 19.47,12.1 -0.59,6.09 1.83,12.55 -2.41,17.87 -1.51,-1.17 -3.03,-2.33 -4.56,-3.45 -0.78,1.9 -1.61,3.89 -1.29,6 0.17,0.62 0.52,1.87 0.7,2.49 -0.5,0.29 -1.5,0.88 -2,1.18 -0.3,2.57 -0.56,5.15 -0.78,7.74 0.89,0.44 1.79,0.89 2.7,1.34 -0.43,0.05 -1.29,0.14 -1.72,0.18 4.31,2.88 0.01,12.56 6.87,10.87 0.4,0.22 1.2,0.67 1.6,0.89 2.43,10.29 15.4,7.56 21.75,14.32 -0.11,0.46 -0.31,1.37 -0.42,1.82 9.11,5.54 18.56,-0.99 27.68,-2.78 0.14,-0.89 0.28,-1.76 0.42,-2.63 9.49,5.26 22.16,-1.92 31.58,4.96 4.98,3.03 14.31,9.38 6.88,14.97 -3.39,-2.03 -6.86,-3.92 -10.3,-5.86 -1.24,1.03 -2.45,2.09 -3.69,3.13 1.71,0.39 3.41,0.78 5.13,1.16 2.78,5.58 -1.24,11.2 -0.91,16.83 5,9.12 10.62,21.33 22.75,21.49 7.29,1.62 14.41,-1.62 21.71,-1.35 6.88,1.88 13.51,1.86 20.45,0.87 -1.17,10.22 7.58,18.92 14.03,25.96 16.42,9.45 36.87,8.63 54.16,1.92 3.99,-2 6.3,-6.04 8.15,-9.91 5.41,-3.32 11.06,-6.23 16.71,-9.1 4.68,-1.61 10.12,-2.95 12.42,-7.87 2.05,0.23 4.1,0.46 6.16,0.68 4.83,6.71 -2.74,9.1 -8.09,10.21 -15.54,3.34 -25.17,16.68 -37.34,25.6 -4.6,8.09 5.64,13.64 6.2,21.34 2.14,10.62 14.65,8.77 18.86,17.44 0.7,-0.44 1.42,-0.87 2.14,-1.29 2.46,3.81 7.56,2.11 10,-0.81 5.91,-8.33 5.33,-19.88 5.37,-29.58 1.16,-5.46 0.27,-11.06 0.32,-16.58 -1.4,-0.32 -2.79,-0.64 -4.17,-0.94 2.11,-1.09 4.22,-2.17 6.33,-3.24 -1.52,-1.8 -2.58,-3.95 -0.83,-5.98 -0.58,-0.56 -1.15,-1.12 -1.72,-1.66 0.85,-0.81 1.71,-1.61 2.57,-2.41 -0.97,-0.54 -1.92,-1.09 -2.87,-1.63 2.59,-0.52 5.19,-1.04 7.8,-1.54 -0.93,-4.24 -1.19,-8.62 -0.25,-12.88 -0.3,-11.23 5.71,-23.19 16.77,-26.5 7.72,-6.29 19.75,-6.42 28.78,-2.84 13.19,8.24 24.86,-6.96 36.25,-11.87 10.53,-15.76 27.83,-27.3 47.31,-24.78 10.59,-5.79 16.59,-17.79 25.01,-26.38 0.36,0.26 1.09,0.77 1.45,1.03 -0.33,0.48 -1,1.46 -1.34,1.95 0.83,-0.08 1.66,-0.15 2.5,-0.22 0.29,-0.95 0.58,-1.9 0.89,-2.84 1.37,0.01 2.75,0.03 4.14,0.06 -2.5,4.12 -4.49,8.57 -7.51,12.35 0.1,0.37 0.29,1.12 0.39,1.49 7.66,-3.53 12.93,-12.88 22.6,-10.52 14.38,5.96 31.7,7.2 46.39,3.93 30.76,-5.51 60.11,-15.75 90.49,-23.36 -4.99,7.24 -14.08,8.05 -21.78,10.42 -1.92,0.64 -3.78,1.44 -5.61,2.27 2.83,0.51 5.67,0.93 8.53,1.31 -2.54,0.71 -5.07,1.46 -7.6,2.2 -32,5.91 -63.93,14.79 -96.74,14.49 -8.91,1.78 -18.22,-0.57 -26.96,1.8 -7.33,4.35 -11.39,12.69 -19.34,16.41 2.67,2.9 5.66,5.88 5.17,10.2 -1.66,0.65 -3.31,1.31 -4.95,1.97 -5.91,-6.11 -14.9,-5.34 -21.76,-9.46 -7.67,-8.1 -17.48,-1.62 -25.39,2.25 0.76,0.61 1.54,1.24 2.3,1.88 -2.2,1.9 -2.63,4.8 -3.18,7.48 -6.95,8.93 -6.64,20.86 -10.6,31.05 1.18,-0.03 2.36,-0.05 3.56,-0.07 -0.83,0.78 -1.69,1.54 -2.52,2.32 0.65,0.38 1.3,0.77 1.97,1.17 -2.04,0.75 -4.06,1.51 -6.07,2.32 1.66,0.26 3.33,0.51 5,0.77 1.56,1.57 3.13,3.16 4.68,4.75 0.91,-0.73 1.82,-1.46 2.74,-2.18 -0.34,2.76 -0.64,5.53 -0.89,8.3 1.76,0.03 3.52,0.06 5.29,0.1 -0.91,1.18 -1.81,2.37 -2.71,3.56 11.93,3.08 25.59,16.63 38.15,7.49 6.02,-3.4 8.84,-14.02 17.27,-11.75 2.39,-3.38 4.21,-7.12 5.38,-11.09 -1.29,-0.12 -2.57,-0.25 -3.84,-0.36 0.21,-0.52 0.63,-1.56 0.84,-2.08 1.96,-0.66 3.93,-1.31 5.9,-1.98 0.21,1.93 0.49,3.86 0.73,5.79 -0.63,5.2 -2.93,10.51 -8.09,12.59 -10.09,3.08 -14.37,15.17 -24.89,17.38 -19.61,0.18 -33.79,-16.64 -51.53,-21.59 1.72,1.44 3.6,2.69 5.52,3.87 -0.81,0.28 -1.61,0.57 -2.41,0.86 5.65,3.95 2.94,11.81 1.6,17.29 -5.4,0.59 -0.6,-4.75 -2.38,-7.57 -3.45,-8.25 -6.48,-17.29 -13.66,-23.14 -5.67,-3.25 -10.51,-7.59 -13.99,-13.21 -8.44,-8.61 -25.23,-6.97 -33.92,1.85 -0.95,-1.14 -1.91,-2.27 -2.87,-3.38 -2.89,4.59 -5.78,9.39 -6.37,14.9 -1.15,6.89 -2.54,14.14 -0.09,20.93 2.16,6.95 5.15,15.27 12.57,18.05 -0.44,1.94 -0.89,3.88 -1.36,5.83 3.14,-2.64 7.09,-3.78 10.95,-4.88 2.54,2.57 5.11,5.17 6.99,8.3 -3.9,-1.81 -7.47,-5.85 -12.14,-4.41 1.94,8.18 11.74,7.14 17.39,11.26 1.33,-1.34 2.6,-2.72 3.93,-4.06 1.31,1.04 2.63,2.09 3.95,3.14 -5.08,0.87 -10.17,1.74 -15.32,1.98 -7.13,0.06 -12.47,-7.18 -19.66,-5.1 -1.91,-5.48 -6.44,-9.31 -10.43,-13.27 -2.25,11.36 -5.95,22.72 -4.35,34.44 -2.17,7.81 -9.37,13.57 -15.88,18.02 -20.33,2.19 -38.25,-12.96 -44.89,-31.46 0.53,-1.18 1.06,-2.34 1.58,-3.52 -1.47,-2.41 -2.22,-5.14 -2.52,-7.93 -10.7,0.64 -21.57,4.11 -31.79,-1.37 -13.08,-2.09 -26.46,-1.63 -38.15,-9.24 -13.85,-0.45 -15.87,-19.42 -29.44,-19.07 -7.55,-1.46 -14.87,-3.84 -22.02,-6.63 0.84,1.1 1.69,2.21 2.54,3.32 -0.12,0.85 -0.24,1.71 -0.36,2.58 -5.77,-4.71 -13.42,-7.14 -17.52,-13.75 -3.97,-8.31 -7.32,-16.8 -10.34,-25.52 0.9,-1.01 1.79,-2.02 2.68,-3.03 -8.31,-1.06 -20.04,-1.15 -26.56,4.94 -0.43,0.07 -1.3,0.21 -1.74,0.28 -3.65,-1.72 -7.96,-4.65 -11.67,-1.41 0.05,-1.73 0.11,-3.45 0.14,-5.17 -0.31,0 -0.93,-0.01 -1.24,-0.02 -0.63,1.16 -1.26,2.32 -1.88,3.49 -4.34,-1.68 -8.66,-3.66 -13.4,-3.79 0.22,-1.22 0.44,-2.45 0.66,-3.66 -1.58,-0.4 -3.17,-0.78 -4.74,-1.2 -8.79,-9.86 -19.07,-23.83 -15.29,-37.85 -0.4,0.11 -1.2,0.32 -1.6,0.43 1.12,-3.77 2.21,-7.57 2.74,-11.48 0.17,-1.4 0.3,-2.8 0.43,-4.19 2.07,-0.31 4.14,-0.63 6.22,-0.94 2.85,-8.25 -6.55,-13.79 -12.68,-7.64 -14.16,16.23 -36.56,23.77 -57.1,15.12 -17.25,-0.28 -29.54,-17.91 -28.22,-34.12 4.56,-9.19 2.98,-19.8 6.9,-29.22 2.42,-6.2 6.38,-12.96 2.63,-19.55 -0.97,0.02 -1.93,0.05 -2.9,0.09 -1.04,-1.32 -2.08,-2.64 -3.06,-3.99 0.05,-2.33 -1.8,-3.73 -3.47,-5 -8.89,-22.57 -18.96,-45.76 -38.67,-61.73 -0.13,-1.18 -0.25,-2.36 -0.37,-3.54 9.15,4.05 16.3,10.85 20.55,19.58 2.1,-4.73 -1.79,-8.37 -2.38,-12.76 5.24,4.14 6.51,11.14 10.78,16.09 2.55,-0.13 5.1,-0.25 7.65,-0.38 -0.27,0.95 -0.56,1.9 -0.86,2.84 -1.35,-0.27 -2.7,-0.53 -4.04,-0.78 2.2,1.67 4.41,3.38 6.31,5.41 -2.11,0.17 -4.22,0.08 -6.33,-0.06 0.43,4.2 2.81,7.63 7,8.69 -0.24,1.91 -0.45,3.82 -0.65,5.74 1.26,-0.86 2.51,-1.72 3.76,-2.59 3.65,3.34 6.96,7.21 11.55,9.31 0.91,0.51 1.82,1.02 2.74,1.53 0.05,0.85 0.09,1.7 0.14,2.56 -0.69,-0.05 -1.39,-0.1 -2.09,-0.14 1.8,3.56 -0.43,6.91 -4.22,7.47 0.97,1.04 1.94,2.08 2.92,3.13 4.67,-4.28 6.57,-10.43 8.65,-16.2 3.13,-4.21 6.8,-7.96 10.71,-11.43 -0.92,-0.52 -1.83,-1.03 -2.74,-1.54 14.02,-7.7 26.5,-18.42 43.17,-19.86 4.64,-1.46 9.05,-3.55 13.49,-5.55 2.87,-5.19 9.09,-6.87 14.47,-8.05 -1.25,-0.81 -2.5,-1.61 -3.76,-2.4 5.66,-1.98 11.83,-4.89 14.15,-10.86 13.06,-11.14 27.11,-25.86 45.5,-26.14 -0.47,-0.61 -1.41,-1.83 -1.88,-2.44 10.12,1.4 19.84,-2.02 29.32,-5 18.15,1.99 34.02,-7.69 49,-16.95 -0.26,-0.32 -0.78,-0.97 -1.04,-1.3 10.43,-0.62 17.69,-9.57 24.66,-16.38 1.41,-1.99 2.63,-4.11 4.12,-6.05 1.75,0.31 3.51,0.61 5.27,0.91 -0.21,-1.23 -0.43,-2.46 -0.64,-3.68 2.71,-1.86 5.48,-3.63 8.33,-5.26 0.63,0.37 1.26,0.74 1.9,1.11 0.72,-0.43 1.45,-0.87 2.19,-1.3 8.73,-1.11 18.96,1.73 25.22,-5.82 M 218.11,432.19 c -0.26,6.2 -0.3,12.73 1.76,18.66 1.55,0.8 3.08,1.66 4.59,2.56 0.19,-0.05 0.57,-0.13 0.76,-0.17 -0.4,-7.24 0.71,-17.61 -7.11,-21.05 m 11.66,27.08 c 0.44,3.11 2.25,5.7 3.97,8.24 2.01,0.17 4.02,0.33 6.04,0.47 -0.86,0.8 -1.74,1.56 -2.59,2.37 3.91,2.2 8.46,6 12.68,2.2 0.17,0.56 0.49,1.68 0.65,2.25 4.48,-3.3 -0.58,-5.72 -4.09,-6.16 -0.01,-0.73 -0.01,-1.45 -0.02,-2.17 -6.09,-0.81 -12.26,-2.66 -16.64,-7.2 m 71.76,20.89 c 0.01,4.15 -0.82,8.25 -2.92,11.86 1.21,3.07 1.68,6.35 1.23,9.63 5.03,5.52 11.45,10.14 18.95,11.43 -1.92,-6.19 -7.62,-9.53 -12.46,-13.19 0.62,-2.84 -0.24,-5.57 -1.53,-8.08 0.8,-3.86 -1.44,-7.42 -1.62,-11.23 -0.41,-0.1 -1.24,-0.31 -1.65,-0.42 m 59.5,46.65 c -0.92,-0.62 -1.83,-1.23 -2.75,-1.82 -0.05,5.22 5.28,9.26 10.03,10.32 0.04,1.22 0.08,2.43 0.12,3.66 5.5,-1.79 10.68,0.68 15.68,2.73 -0.98,-3.54 -3.11,-6.58 -6.9,-7.32 1.04,-0.61 2.09,-1.21 3.13,-1.8 -5.22,-1 -8,-5.79 -12.23,-8.45 -2.2,1.26 -4.53,2.06 -5.13,-1.12 -0.65,1.27 -1.31,2.52 -1.95,3.8 z"
         inkscape:connector-curvature="0"
         style="opacity:1;fill:#080808" />
    </g>
  </g>
</svg>
