<?xml version="1.0" encoding="UTF-8" standalone="no"?>
<!-- Generator: Adobe Illustrator 16.0.0, SVG Export Plug-In . SVG Version: 6.00 Build 0)  -->

<svg
   xmlns:dc="http://purl.org/dc/elements/1.1/"
   xmlns:cc="http://creativecommons.org/ns#"
   xmlns:rdf="http://www.w3.org/1999/02/22-rdf-syntax-ns#"
   xmlns:svg="http://www.w3.org/2000/svg"
   xmlns="http://www.w3.org/2000/svg"
   xmlns:sodipodi="http://sodipodi.sourceforge.net/DTD/sodipodi-0.dtd"
   xmlns:inkscape="http://www.inkscape.org/namespaces/inkscape"
   version="1.1"
   id="Capa_1"
   x="0px"
   y="0px"
   width="612px"
   height="612px"
   viewBox="0 0 612 612"
   style="enable-background:new 0 0 612 612;"
   xml:space="preserve"
   sodipodi:docname="x.svg"
   inkscape:version="0.92.2 (5c3e80d, 2017-08-06)"><metadata
     id="metadata4590"><rdf:RDF><cc:Work
         rdf:about=""><dc:format>image/svg+xml</dc:format><dc:type
           rdf:resource="http://purl.org/dc/dcmitype/StillImage" /></cc:Work></rdf:RDF></metadata><defs
     id="defs4588" /><sodipodi:namedview
     pagecolor="#ffffff"
     bordercolor="#666666"
     borderopacity="1"
     objecttolerance="10"
     gridtolerance="10"
     guidetolerance="10"
     inkscape:pageopacity="0"
     inkscape:pageshadow="2"
     inkscape:window-width="1366"
     inkscape:window-height="706"
     id="namedview4586"
     showgrid="false"
     inkscape:zoom="0.90359477"
     inkscape:cx="239.46818"
     inkscape:cy="306"
     inkscape:window-x="-8"
     inkscape:window-y="32"
     inkscape:window-maximized="1"
     inkscape:current-layer="Capa_1" /><g
     id="g4553"
     style="fill:#ffffff"><g
       id="_x38__41_"
       style="fill:#ffffff"><g
         id="g4550"
         style="fill:#ffffff"><path
           d="M444.644,306l138.644-138.644c38.284-38.284,38.284-100.36,0-138.644c-38.283-38.284-100.359-38.284-138.644,0     L306,167.356L167.356,28.713c-38.284-38.284-100.36-38.284-138.644,0s-38.284,100.36,0,138.644L167.356,306L28.713,444.644     c-38.284,38.283-38.284,100.36,0,138.644c38.284,38.284,100.36,38.284,138.644,0L306,444.644l138.644,138.644     c38.283,38.284,100.36,38.284,138.644,0c38.284-38.283,38.284-100.36,0-138.644L444.644,306z"
           id="path4548"
           style="fill:#ffffff" /></g></g></g><g
     id="g4555" /><g
     id="g4557" /><g
     id="g4559" /><g
     id="g4561" /><g
     id="g4563" /><g
     id="g4565" /><g
     id="g4567" /><g
     id="g4569" /><g
     id="g4571" /><g
     id="g4573" /><g
     id="g4575" /><g
     id="g4577" /><g
     id="g4579" /><g
     id="g4581" /><g
     id="g4583" /></svg>